<mxfile host="Electron" agent="Mozilla/5.0 (Windows NT 10.0; Win64; x64) AppleWebKit/537.36 (KHTML, like Gecko) draw.io/28.0.6 Chrome/138.0.7204.100 Electron/37.2.3 Safari/537.36" version="28.0.6">
  <diagram name="Page-1" id="VsPK80u84I4SX8wCz1L9">
    <mxGraphModel dx="872" dy="547" grid="1" gridSize="10" guides="1" tooltips="1" connect="1" arrows="1" fold="1" page="1" pageScale="1" pageWidth="1654" pageHeight="1169" math="0" shadow="0">
      <root>
        <mxCell id="0" />
        <mxCell id="1" parent="0" />
        <mxCell id="5nzX1RiBycqc1I2wQRXT-15" style="edgeStyle=orthogonalEdgeStyle;rounded=0;orthogonalLoop=1;jettySize=auto;html=1;exitX=0.75;exitY=1;exitDx=0;exitDy=0;entryX=0.75;entryY=0;entryDx=0;entryDy=0;" edge="1" parent="1" source="5nzX1RiBycqc1I2wQRXT-3" target="5nzX1RiBycqc1I2wQRXT-6">
          <mxGeometry relative="1" as="geometry" />
        </mxCell>
        <mxCell id="5nzX1RiBycqc1I2wQRXT-3" value="User" style="text;html=1;align=center;verticalAlign=middle;whiteSpace=wrap;rounded=0;fillColor=#f8cecc;strokeColor=#b85450;" vertex="1" parent="1">
          <mxGeometry x="140" y="80" width="100" height="30" as="geometry" />
        </mxCell>
        <mxCell id="5nzX1RiBycqc1I2wQRXT-16" style="edgeStyle=orthogonalEdgeStyle;rounded=0;orthogonalLoop=1;jettySize=auto;html=1;exitX=0.25;exitY=0;exitDx=0;exitDy=0;entryX=0.25;entryY=1;entryDx=0;entryDy=0;" edge="1" parent="1" source="5nzX1RiBycqc1I2wQRXT-6" target="5nzX1RiBycqc1I2wQRXT-3">
          <mxGeometry relative="1" as="geometry" />
        </mxCell>
        <mxCell id="5nzX1RiBycqc1I2wQRXT-29" style="edgeStyle=orthogonalEdgeStyle;rounded=0;orthogonalLoop=1;jettySize=auto;html=1;exitX=1;exitY=0;exitDx=0;exitDy=0;entryX=0.5;entryY=0;entryDx=0;entryDy=0;" edge="1" parent="1" source="5nzX1RiBycqc1I2wQRXT-6" target="5nzX1RiBycqc1I2wQRXT-27">
          <mxGeometry relative="1" as="geometry">
            <Array as="points">
              <mxPoint x="355" y="210" />
            </Array>
          </mxGeometry>
        </mxCell>
        <mxCell id="5nzX1RiBycqc1I2wQRXT-6" value="/api/generate" style="text;html=1;align=center;verticalAlign=middle;whiteSpace=wrap;rounded=0;fillColor=#f5f5f5;fontColor=#333333;strokeColor=#666666;" vertex="1" parent="1">
          <mxGeometry x="140" y="210" width="100" height="30" as="geometry" />
        </mxCell>
        <mxCell id="5nzX1RiBycqc1I2wQRXT-17" value="POST" style="text;html=1;align=center;verticalAlign=middle;whiteSpace=wrap;rounded=0;" vertex="1" parent="1">
          <mxGeometry x="165" y="150" width="50" height="20" as="geometry" />
        </mxCell>
        <mxCell id="5nzX1RiBycqc1I2wQRXT-18" value="Step One" style="text;html=1;align=center;verticalAlign=middle;whiteSpace=wrap;rounded=0;" vertex="1" parent="1">
          <mxGeometry x="160" y="30" width="60" height="30" as="geometry" />
        </mxCell>
        <mxCell id="5nzX1RiBycqc1I2wQRXT-19" style="edgeStyle=orthogonalEdgeStyle;rounded=0;orthogonalLoop=1;jettySize=auto;html=1;exitX=0.75;exitY=1;exitDx=0;exitDy=0;entryX=0.75;entryY=0;entryDx=0;entryDy=0;" edge="1" parent="1" source="5nzX1RiBycqc1I2wQRXT-20" target="5nzX1RiBycqc1I2wQRXT-22">
          <mxGeometry relative="1" as="geometry" />
        </mxCell>
        <mxCell id="5nzX1RiBycqc1I2wQRXT-20" value="User" style="text;html=1;align=center;verticalAlign=middle;whiteSpace=wrap;rounded=0;fillColor=#f8cecc;strokeColor=#b85450;" vertex="1" parent="1">
          <mxGeometry x="531" y="80" width="100" height="30" as="geometry" />
        </mxCell>
        <mxCell id="5nzX1RiBycqc1I2wQRXT-21" style="edgeStyle=orthogonalEdgeStyle;rounded=0;orthogonalLoop=1;jettySize=auto;html=1;exitX=0.25;exitY=0;exitDx=0;exitDy=0;entryX=0.25;entryY=1;entryDx=0;entryDy=0;" edge="1" parent="1" source="5nzX1RiBycqc1I2wQRXT-22" target="5nzX1RiBycqc1I2wQRXT-20">
          <mxGeometry relative="1" as="geometry" />
        </mxCell>
        <mxCell id="5nzX1RiBycqc1I2wQRXT-22" value="/api/verify" style="text;html=1;align=center;verticalAlign=middle;whiteSpace=wrap;rounded=0;fillColor=#f5f5f5;fontColor=#333333;strokeColor=#666666;" vertex="1" parent="1">
          <mxGeometry x="531" y="210" width="100" height="30" as="geometry" />
        </mxCell>
        <mxCell id="5nzX1RiBycqc1I2wQRXT-23" value="POST" style="text;html=1;align=center;verticalAlign=middle;whiteSpace=wrap;rounded=0;" vertex="1" parent="1">
          <mxGeometry x="556" y="150" width="50" height="20" as="geometry" />
        </mxCell>
        <mxCell id="5nzX1RiBycqc1I2wQRXT-24" value="Step Two" style="text;html=1;align=center;verticalAlign=middle;whiteSpace=wrap;rounded=0;" vertex="1" parent="1">
          <mxGeometry x="551" y="30" width="60" height="30" as="geometry" />
        </mxCell>
        <mxCell id="5nzX1RiBycqc1I2wQRXT-28" style="edgeStyle=orthogonalEdgeStyle;rounded=0;orthogonalLoop=1;jettySize=auto;html=1;exitX=0.25;exitY=0;exitDx=0;exitDy=0;entryX=1;entryY=1;entryDx=0;entryDy=0;" edge="1" parent="1" source="5nzX1RiBycqc1I2wQRXT-27" target="5nzX1RiBycqc1I2wQRXT-6">
          <mxGeometry relative="1" as="geometry" />
        </mxCell>
        <mxCell id="5nzX1RiBycqc1I2wQRXT-27" value="&lt;span style=&quot;color: rgb(230, 219, 116); font-family: &amp;quot;Times New Roman (Headings CS)&amp;quot;, Consolas, &amp;quot;Courier New&amp;quot;, monospace; font-size: 8px; white-space: pre; background-color: rgb(39, 40, 34);&quot;&gt;https://api.sms.ir/v1/send/verify&lt;/span&gt;" style="shape=process;whiteSpace=wrap;html=1;backgroundOutline=1;" vertex="1" parent="1">
          <mxGeometry x="260" y="260" width="190" height="20" as="geometry" />
        </mxCell>
        <mxCell id="5nzX1RiBycqc1I2wQRXT-30" value="POST" style="text;html=1;align=center;verticalAlign=middle;whiteSpace=wrap;rounded=0;" vertex="1" parent="1">
          <mxGeometry x="280" y="215" width="50" height="20" as="geometry" />
        </mxCell>
        <mxCell id="5nzX1RiBycqc1I2wQRXT-31" value="" style="shape=flexArrow;endArrow=classic;html=1;rounded=0;exitX=0.75;exitY=0;exitDx=0;exitDy=0;" edge="1" parent="1" source="5nzX1RiBycqc1I2wQRXT-27">
          <mxGeometry width="50" height="50" relative="1" as="geometry">
            <mxPoint x="420" y="210" as="sourcePoint" />
            <mxPoint x="250" y="100" as="targetPoint" />
            <Array as="points">
              <mxPoint x="360" y="140" />
            </Array>
          </mxGeometry>
        </mxCell>
        <mxCell id="5nzX1RiBycqc1I2wQRXT-32" value="&lt;font style=&quot;font-size: 8px; color: rgb(167, 0, 0);&quot;&gt;&lt;b&gt;Sends an SMS Containing an OTP Token&lt;/b&gt;&lt;/font&gt;" style="edgeLabel;html=1;align=center;verticalAlign=middle;resizable=0;points=[];" vertex="1" connectable="0" parent="5nzX1RiBycqc1I2wQRXT-31">
          <mxGeometry x="0.2419" relative="1" as="geometry">
            <mxPoint as="offset" />
          </mxGeometry>
        </mxCell>
        <mxCell id="5nzX1RiBycqc1I2wQRXT-34" value="User" style="text;html=1;align=center;verticalAlign=middle;whiteSpace=wrap;rounded=0;fillColor=#f8cecc;strokeColor=#b85450;" vertex="1" parent="1">
          <mxGeometry x="807.5" y="80" width="100" height="30" as="geometry" />
        </mxCell>
        <mxCell id="5nzX1RiBycqc1I2wQRXT-36" value="&lt;span style=&quot;font-family: Inter, system-ui, -apple-system, BlinkMacSystemFont, &amp;quot;Segoe UI&amp;quot;, Roboto, Oxygen, Ubuntu, Cantarell, &amp;quot;Fira Sans&amp;quot;, &amp;quot;Droid Sans&amp;quot;, Helvetica, Arial, sans-serif; text-align: left; white-space-collapse: preserve;&quot;&gt;&lt;font style=&quot;color: rgb(0, 0, 0);&quot;&gt;/api/generate/{generate}/vote/{vote}&lt;/font&gt;&lt;/span&gt;" style="text;html=1;align=center;verticalAlign=middle;whiteSpace=wrap;rounded=0;fillColor=#f5f5f5;fontColor=#333333;strokeColor=#666666;" vertex="1" parent="1">
          <mxGeometry x="725" y="210" width="265" height="30" as="geometry" />
        </mxCell>
        <mxCell id="5nzX1RiBycqc1I2wQRXT-37" value="POST" style="text;html=1;align=center;verticalAlign=middle;whiteSpace=wrap;rounded=0;" vertex="1" parent="1">
          <mxGeometry x="832.5" y="150" width="50" height="20" as="geometry" />
        </mxCell>
        <mxCell id="5nzX1RiBycqc1I2wQRXT-38" value="Step Two" style="text;html=1;align=center;verticalAlign=middle;whiteSpace=wrap;rounded=0;" vertex="1" parent="1">
          <mxGeometry x="832.5" y="30" width="60" height="30" as="geometry" />
        </mxCell>
        <mxCell id="5nzX1RiBycqc1I2wQRXT-39" value="" style="line;strokeWidth=2;direction=south;html=1;" vertex="1" parent="1">
          <mxGeometry x="470" y="60" width="10" height="250" as="geometry" />
        </mxCell>
        <mxCell id="5nzX1RiBycqc1I2wQRXT-40" value="" style="line;strokeWidth=2;direction=south;html=1;" vertex="1" parent="1">
          <mxGeometry x="690" y="60" width="10" height="250" as="geometry" />
        </mxCell>
        <mxCell id="5nzX1RiBycqc1I2wQRXT-41" value="OTP SMS Sender API" style="label;whiteSpace=wrap;html=1;image=img/clipart/Gear_128x128.png" vertex="1" parent="1">
          <mxGeometry x="140" y="360" width="140" height="60" as="geometry" />
        </mxCell>
        <mxCell id="5nzX1RiBycqc1I2wQRXT-46" style="edgeStyle=orthogonalEdgeStyle;rounded=0;orthogonalLoop=1;jettySize=auto;html=1;exitX=0.75;exitY=1;exitDx=0;exitDy=0;entryX=0.75;entryY=0;entryDx=0;entryDy=0;" edge="1" parent="1">
          <mxGeometry relative="1" as="geometry">
            <mxPoint x="821" y="110" as="sourcePoint" />
            <mxPoint x="821" y="210" as="targetPoint" />
          </mxGeometry>
        </mxCell>
        <mxCell id="5nzX1RiBycqc1I2wQRXT-47" style="edgeStyle=orthogonalEdgeStyle;rounded=0;orthogonalLoop=1;jettySize=auto;html=1;exitX=0.25;exitY=0;exitDx=0;exitDy=0;entryX=0.25;entryY=1;entryDx=0;entryDy=0;" edge="1" parent="1">
          <mxGeometry relative="1" as="geometry">
            <mxPoint x="771" y="210" as="sourcePoint" />
            <mxPoint x="771" y="110" as="targetPoint" />
          </mxGeometry>
        </mxCell>
      </root>
    </mxGraphModel>
  </diagram>
</mxfile>
